<svg width="43" height="43" viewBox="0 0 43 43" fill="none" xmlns="http://www.w3.org/2000/svg">
<path d="M21.5 0C9.675 0 0 9.675 0 21.5C0 33.325 9.675 43 21.5 43C33.325 43 43 33.325 43 21.5C43 9.675 33.325 0 21.5 0ZM21.5 6.45C25.155 6.45 27.95 9.245 27.95 12.9C27.95 16.555 25.155 19.35 21.5 19.35C17.845 19.35 15.05 16.555 15.05 12.9C15.05 9.245 17.845 6.45 21.5 6.45ZM21.5 36.98C16.125 36.98 11.395 34.1851 8.6 30.1C8.6 25.8 17.2 23.435 21.5 23.435C25.8 23.435 34.4 25.8 34.4 30.1C31.605 34.185 26.875 36.98 21.5 36.98Z" fill="white"/>
</svg>
