<svg width="40" height="38" viewBox="0 0 40 38" fill="none" xmlns="http://www.w3.org/2000/svg">
<path d="M39.7632 7.30363C39.5309 6.98264 39.1601 6.79269 38.7661 6.79269H10.9998C10.946 6.79269 10.8923 6.79598 10.8406 6.80301L9.69788 3.48207C9.57945 3.13861 9.31864 2.86483 8.98347 2.7318L3.22443 0.450968C2.58972 0.200444 1.8735 0.514749 1.62423 1.15386C1.37539 1.79331 1.68707 2.51582 2.32143 2.76712L7.55197 4.83865L13.9542 23.4435C13.6717 23.5427 13.4322 23.7613 13.3231 24.0671L11.472 29.2511C11.3586 29.5689 11.4053 29.9221 11.5984 30.1983C11.7912 30.4745 12.1048 30.639 12.4396 30.639H13.3902C12.8011 31.2999 12.4396 32.1702 12.4396 33.1273C12.4396 35.1855 14.1007 36.8597 16.1418 36.8597C18.183 36.8597 19.844 35.1855 19.844 33.1273C19.844 32.1702 19.4825 31.2999 18.8934 30.639H26.9651C26.3757 31.2999 26.0141 32.1702 26.0141 33.1273C26.0141 35.1855 27.6749 36.8597 29.7164 36.8597C31.7579 36.8597 33.4187 35.1855 33.4187 33.1273C33.4187 32.1702 33.0571 31.2999 32.4681 30.639H33.6244C34.1924 30.639 34.6527 30.1748 34.6527 29.6022C34.6527 29.0295 34.1923 28.5655 33.6244 28.5655H13.9029L15.0493 25.3551C15.1973 25.4179 15.3572 25.455 15.5247 25.455H33.6241C34.1607 25.455 34.6356 25.1056 34.799 24.5908L39.941 8.4168C40.0616 8.03811 39.9954 7.62461 39.7632 7.30363ZM16.1418 34.7861C15.2343 34.7861 14.4964 34.0422 14.4964 33.1273C14.4964 32.2124 15.2343 31.4684 16.1418 31.4684C17.0493 31.4684 17.7872 32.2124 17.7872 33.1273C17.7872 34.0422 17.0493 34.7861 16.1418 34.7861ZM29.7164 34.7861C28.8089 34.7861 28.0709 34.0422 28.0709 33.1273C28.0709 32.2124 28.8089 31.4684 29.7164 31.4684C30.6238 31.4684 31.3617 32.2124 31.3617 33.1273C31.3617 34.0422 30.6238 34.7861 29.7164 34.7861ZM36.1851 12.0803H29.8878V9.28101H37.0749L36.1851 12.0803ZM34.3718 17.7826H29.8878V14.5686H35.3937L34.3718 17.7826ZM21.729 17.7826V14.5686H27.4196V17.7826H21.729ZM27.4196 20.2711V22.9667H21.729V20.2711H27.4196ZM13.5128 14.5686H19.2611V17.7826H14.6189L13.5128 14.5686ZM21.729 12.0803V9.28101H27.4196V12.0803H21.729ZM19.261 9.28101V12.0803H12.6562L11.693 9.28101H19.261ZM15.4753 20.2711H19.261V22.9667H16.4029L15.4753 20.2711ZM29.8878 22.9668V20.2712H33.5812L32.7243 22.9668H29.8878Z" fill="white"/>
</svg>
